:FULLY-SPECIFIED
:FORCE-ALL-JOINTS-BE-3DOF
:DEGREES
68
root 6.02339 16.76 -27.8106 12.0211 1.66904 -4.9569
lfemur -34.6101 8.17019 -13.8535
ltibia 43.7784 0 0
lfoot -24.838 5.5034 0
ltoes 24.1449 0 0
rfemur -10.4057 1.44837 22.925
rtibia 26.423 0 0
rfoot -30.2041 -20.2599 0
rtoes -2.81752 0 0
lowerback -5.50125 3.57302 2.7005
upperback -2.29025 4.71753 0.149764
thorax 0.889787 2.33823 -1.19519
lowerneck -10.0052 -2.89514 3.36008
upperneck -5.01089 -4.15305 1.55213
head 0.0471253 -2.10031 -0.19261
lclavicle 9.30208e-015 1.39365e-014 0
lhumerus -42.4931 -9.69558 93.0396
lradius 43.19 0 0
lwrist 8.37935 0 0
lhand -12.7627 2.09494 0
lfingers 7.12502 0 0
lthumb 13.3287 31.7304 0
rclavicle 9.30208e-015 1.39365e-014 0
rhumerus -37.8632 1.0213 -92.2783
rradius 40.7908 0 0
rwrist 9.03191 0 0
rhand -26.7624 -21.1988 0
rfingers 7.12502 0 0
rthumb -0.183055 -51.3311 0
69
root 6.03412 16.7542 -27.7963 12.0404 1.82499 -5.0765
lfemur -35.1411 8.46277 -13.6118
ltibia 44.1723 0 0
lfoot -24.3857 5.50914 0
ltoes 23.7246 0 0
rfemur -10.2788 1.16415 23.0342
rtibia 26.3422 0 0
rfoot -30.2609 -20.1974 0
rtoes -3.37441 0 0
lowerback -5.41972 3.62037 2.78371
upperback -2.30143 4.77855 0.171685
thorax 0.836666 2.36895 -1.22155
lowerneck -10.0336 -2.95639 3.36587
upperneck -5.07349 -4.23392 1.54915
head 0.0311611 -2.14161 -0.196629
lclavicle 8.10627e-015 1.37663e-014 0
lhumerus -42.5347 -9.55119 92.9132
lradius 43.2936 0 0
lwrist 8.43545 0 0
lhand -12.7418 2.08467 0
lfingers 7.12502 0 0
lthumb 13.3489 31.7192 0
rclavicle 8.10627e-015 1.37663e-014 0
rhumerus -37.7912 1.26893 -92.2658
rradius 40.9356 0 0
rwrist 8.92457 0 0
rhand -26.6722 -21.237 0
rfingers 7.12502 0 0
rthumb -0.0958723 -51.3697 0
70
root 6.04565 16.7487 -27.7816 12.0476 1.98176 -5.19069
lfemur -35.6427 8.74777 -13.3783
ltibia 44.5479 0 0
lfoot -23.9388 5.50542 0
ltoes 23.3207 0 0
rfemur -10.184 0.878952 23.1326
rtibia 26.2759 0 0
rfoot -30.2962 -20.1197 0
rtoes -3.92076 0 0
lowerback -5.32924 3.6637 2.86161
upperback -2.30866 4.83419 0.194118
thorax 0.782519 2.397 -1.24417
lowerneck -10.0622 -3.01581 3.37023
upperneck -5.13121 -4.31229 1.54567
head 0.0168731 -2.18161 -0.200551
lclavicle 6.89584e-015 1.35931e-014 0
lhumerus -42.5739 -9.4129 92.7901
lradius 43.3967 0 0
lwrist 8.4914 0 0
lhand -12.7107 2.07792 0
lfingers 7.12502 0 0
lthumb 13.3788 31.7102 0
rclavicle 6.89584e-015 1.35931e-014 0
rhumerus -37.7234 1.50792 -92.2338
rradius 41.0889 0 0
rwrist 8.81595 0 0
rhand -26.5678 -21.2716 0
rfingers 7.12502 0 0
rthumb 0.00492235 -51.4035 0
71
root 6.05801 16.7435 -27.7666 12.0419 2.13919 -5.29887
lfemur -36.112 9.02415 -13.1538
ltibia 44.903 0 0
lfoot -23.4984 5.49155 0
ltoes 22.9349 0 0
rfemur -10.1237 0.593388 23.2193
rtibia 26.2249 0 0
rfoot -30.3082 -20.0259 0
rtoes -4.45531 0 0
lowerback -5.22942 3.70258 2.93387
upperback -2.31159 4.88387 0.216938
thorax 0.727495 2.4221 -1.26299
lowerneck -10.0912 -3.07312 3.37308
upperneck -5.18368 -4.38782 1.54176
head 0.00438942 -2.22012 -0.204331
lclavicle 5.67328e-015 1.34187e-014 0
lhumerus -42.6104 -9.28147 92.6706
lradius 43.4994 0 0
lwrist 8.54728 0 0
lhand -12.6689 2.07471 0
lfingers 7.12502 0 0
lthumb 13.4191 31.7033 0
rclavicle 5.67328e-015 1.34187e-014 0
rhumerus -37.6599 1.73724 -92.181
rradius 41.251 0 0
rwrist 8.70618 0 0
rhand -26.4485 -21.3023 0
rfingers 7.12502 0 0
rthumb 0.120087 -51.4319 0
72
root 6.07122 16.7386 -27.7514 12.0224 2.29714 -5.4004
lfemur -36.546 9.29085 -12.9393
ltibia 45.2356 0 0
lfoot -23.0655 5.46683 0
ltoes 22.569 0 0
rfemur -10.1005 0.308073 23.2932
rtibia 26.1904 0 0
rfoot -30.295 -19.9153 0
rtoes -4.97679 0 0
lowerback -5.11985 3.7366 3.00016
upperback -2.30987 4.92703 0.240023
thorax 0.671749 2.44394 -1.2779
lowerneck -10.1205 -3.12807 3.37434
upperneck -5.23048 -4.46015 1.53749
head -0.00616163 -2.25696 -0.207926
lclavicle 4.44106e-015 1.32452e-014 0
lhumerus -42.6441 -9.15766 92.5549
lradius 43.6018 0 0
lwrist 8.60315 0 0
lhand -12.6156 2.07509 0
lfingers 7.12502 0 0
lthumb 13.4703 31.6985 0
rclavicle 4.44106e-015 1.32452e-014 0
rhumerus -37.6011 1.95586 -92.1063
rradius 41.4222 0 0
rwrist 8.59537 0 0
rhand -26.3135 -21.3287 0
rfingers 7.12502 0 0
rthumb 0.25038 -51.4546 0
73
root 6.08532 16.7341 -27.7358 11.9883 2.45545 -5.49466
lfemur -36.9417 9.54681 -12.7359
ltibia 45.5437 0 0
lfoot -22.641 5.43057 0
ltoes 22.2247 0 0
rfemur -10.1167 0.023621 23.3535
rtibia 26.1732 0 0
rfoot -30.2549 -19.7872 0
rtoes -5.48395 0 0
lowerback -5.00015 3.76534 3.06014
upperback -2.30316 4.9631 0.263248
thorax 0.615431 2.46224 -1.28881
lowerneck -10.1501 -3.1804 3.37394
upperneck -5.27122 -4.52895 1.53296
head -0.014652 -2.29196 -0.211293
lclavicle 3.20163e-015 1.30743e-014 0
lhumerus -42.6746 -9.04223 92.4435
lradius 43.7038 0 0
lwrist 8.6591 0 0
lhand -12.5501 2.07908 0
lfingers 7.12502 0 0
lthumb 13.5332 31.6957 0
rclavicle 3.20163e-015 1.30743e-014 0
rhumerus -37.5473 2.16275 -92.0085
rradius 41.6029 0 0
rwrist 8.48363 0 0
rhand -26.1619 -21.3503 0
rfingers 7.12502 0 0
rthumb 0.39656 -51.4709 0
74
root 6.10034 16.7299 -27.7198 11.9386 2.61397 -5.58103
lfemur -37.2961 9.79098 -12.5443
ltibia 45.8251 0 0
lfoot -22.226 5.38208 0
ltoes 21.9036 0 0
rfemur -10.1748 -0.259356 23.3991
rtibia 26.1744 0 0
rfoot -30.1861 -19.6408 0
rtoes -5.97553 0 0
lowerback -4.86993 3.78836 3.11347
upperback -2.29112 4.99151 0.28649
thorax 0.558694 2.47672 -1.29564
lowerneck -10.1799 -3.22984 3.3718
upperneck -5.3055 -4.59387 1.52822
head -0.0209534 -2.32492 -0.214389
lclavicle 1.95749e-015 1.2908e-014 0
lhumerus -42.7016 -8.93595 92.3365
lradius 43.8056 0 0
lwrist 8.71518 0 0
lhand -12.4719 2.08674 0
lfingers 7.12502 0 0
lthumb 13.6083 31.6949 0
rclavicle 1.95749e-015 1.2908e-014 0
rhumerus -37.4988 2.35686 -91.8863
rradius 41.7933 0 0
rwrist 8.37108 0 0
rhand -25.993 -21.3667 0
rfingers 7.12502 0 0
rthumb 0.559386 -51.4803 0
75
root 6.11631 16.7261 -27.7036 11.8725 2.77257 -5.65887
lfemur -37.6062 10.0223 -12.3657
ltibia 46.0779 0 0
lfoot -21.8213 5.32067 0
ltoes 21.6076 0 0
rfemur -10.2773 -0.540243 23.4292
rtibia 26.1949 0 0
rfoot -30.0868 -19.4756 0
rtoes -6.45027 0 0
lowerback -4.7288 3.80526 3.15981
upperback -2.27339 5.0117 0.309624
thorax 0.50169 2.48708 -1.2983
lowerneck -10.2099 -3.27612 3.36785
upperneck -5.33293 -4.65454 1.52337
head -0.0249377 -2.35568 -0.21717
lclavicle 7.11091e-016 1.27481e-014 0
lhumerus -42.7251 -8.83958 92.2343
lradius 43.9071 0 0
lwrist 8.77147 0 0
lhand -12.3802 2.0981 0
lfingers 7.12502 0 0
lthumb 13.6963 31.6961 0
rclavicle 7.11091e-016 1.27481e-014 0
rhumerus -37.4559 2.53717 -91.7386
rradius 41.9939 0 0
rwrist 8.25784 0 0
rhand -25.806 -21.3776 0
rfingers 7.12502 0 0
rthumb 0.739614 -51.4825 0
76
root 6.13326 16.7228 -27.687 11.7891 2.93108 -5.72757
lfemur -37.869 10.2397 -12.201
ltibia 46.3 0 0
lfoot -21.428 5.24564 0
ltoes 21.3383 0 0
rfemur -10.4267 -0.818428 23.4426
rtibia 26.2357 0 0
rfoot -29.9551 -19.2907 0
rtoes -6.9069 0 0
lowerback -4.57636 3.8156 3.19882
upperback -2.24965 5.0231 0.332526
thorax 0.44457 2.49304 -1.29669
lowerneck -10.24 -3.31898 3.362
upperneck -5.35312 -4.71063 1.51847
head -0.0264767 -2.38404 -0.219593
lclavicle -5.3509e-016 1.25965e-014 0
lhumerus -42.7446 -8.75389 92.1373
lradius 44.0084 0 0
lwrist 8.82804 0 0
lhand -12.2744 2.11319 0
lfingers 7.12502 0 0
lthumb 13.7979 31.699 0
rclavicle -5.3509e-016 1.25965e-014 0
rhumerus -37.4188 2.70265 -91.564
rradius 42.205 0 0
rwrist 8.14403 0 0
rhand -25.6001 -21.3825 0
rfingers 7.12502 0 0
rthumb 0.938004 -51.4768 0
77
root 6.15121 16.72 -27.6702 11.6875 3.08935 -5.78649
lfemur -38.0815 10.4422 -12.0512
ltibia 46.4894 0 0
lfoot -21.0471 5.1563 0
ltoes 21.0975 0 0
rfemur -10.6254 -1.0933 23.4385
rtibia 26.2978 0 0
rfoot -29.7893 -19.0855 0
rtoes -7.34417 0 0
lowerback -4.41224 3.81896 3.23018
upperback -2.21953 5.02515 0.355073
thorax 0.387487 2.49431 -1.29073
lowerneck -10.2703 -3.35817 3.35418
upperneck -5.36566 -4.76178 1.5136
head -0.0254424 -2.40983 -0.221614
lclavicle -1.77858e-015 1.24552e-014 0
lhumerus -42.7599 -8.67963 92.0457
lradius 44.1095 0 0
lwrist 8.88497 0 0
lhand -12.1538 2.13205 0
lfingers 7.12502 0 0
lthumb 13.9136 31.7038 0
rclavicle -1.77858e-015 1.24552e-014 0
rhumerus -37.3879 2.85226 -91.3615
rradius 42.4268 0 0
rwrist 8.02975 0 0
rhand -25.3745 -21.381 0
rfingers 7.12502 0 0
rthumb 1.15531 -51.4628 0
